<?xml version="1.0" encoding="UTF-8" standalone="no"?>
<!-- Created with Inkscape (http://www.inkscape.org/) -->

<svg
   xmlns:dc="http://purl.org/dc/elements/1.1/"
   xmlns:cc="http://creativecommons.org/ns#"
   xmlns:rdf="http://www.w3.org/1999/02/22-rdf-syntax-ns#"
   xmlns:svg="http://www.w3.org/2000/svg"
   xmlns="http://www.w3.org/2000/svg"
   xmlns:sodipodi="http://sodipodi.sourceforge.net/DTD/sodipodi-0.dtd"
   xmlns:inkscape="http://www.inkscape.org/namespaces/inkscape"
   width="157mm"
   height="101mm"
   viewBox="0 0 157 101"
   version="1.1"
   id="svg8"
   inkscape:version="0.92.4 (5da689c313, 2019-01-14)"
   sodipodi:docname="plc.svg">
  <defs
     id="defs2">
    <marker
       inkscape:stockid="Arrow1Lend"
       orient="auto"
       refY="0"
       refX="0"
       id="Arrow1Lend"
       style="overflow:visible"
       inkscape:isstock="true">
      <path
         id="path4527"
         d="M 0,0 5,-5 -12.5,0 5,5 Z"
         style="fill:#000000;fill-opacity:1;fill-rule:evenodd;stroke:#000000;stroke-width:1.00000003pt;stroke-opacity:1"
         transform="matrix(-0.8,0,0,-0.8,-10,0)"
         inkscape:connector-curvature="0" />
    </marker>
  </defs>
  <sodipodi:namedview
     id="base"
     pagecolor="#ffffff"
     bordercolor="#666666"
     borderopacity="1.0"
     inkscape:pageopacity="0.0"
     inkscape:pageshadow="2"
     inkscape:zoom="2.8"
     inkscape:cx="284.73622"
     inkscape:cy="80.444836"
     inkscape:document-units="mm"
     inkscape:current-layer="layer1"
     showgrid="false"
     inkscape:window-width="2736"
     inkscape:window-height="1699"
     inkscape:window-x="-13"
     inkscape:window-y="-13"
     inkscape:window-maximized="1"
     width="157mm"
     fit-margin-top="2.7755576e-17"
     fit-margin-left="0"
     fit-margin-right="0"
     fit-margin-bottom="0"
     showguides="false" />
  <metadata
     id="metadata5">
    <rdf:RDF>
      <cc:Work
         rdf:about="">
        <dc:format>image/svg+xml</dc:format>
        <dc:type
           rdf:resource="http://purl.org/dc/dcmitype/StillImage" />
        <dc:title />
      </cc:Work>
    </rdf:RDF>
  </metadata>
  <g
     inkscape:label="Layer 1"
     inkscape:groupmode="layer"
     id="layer1"
     transform="translate(0,-196)">
    <path
       style="fill:none;stroke:#000000;stroke-width:0.26458332px;stroke-linecap:butt;stroke-linejoin:miter;stroke-opacity:1"
       d="m 31.938989,226.79092 c 0,46.30208 0,46.0186 0,46.0186"
       id="path829"
       inkscape:connector-curvature="0" />
    <path
       style="fill:none;stroke:#000000;stroke-width:0.26458332px;stroke-linecap:butt;stroke-linejoin:miter;stroke-opacity:1"
       d="m 31.938989,272.80952 c 85.517111,0 85.895091,0 85.895091,0"
       id="path831"
       inkscape:connector-curvature="0" />
    <path
       style="fill:none;stroke:#000000;stroke-width:0.26458332px;stroke-linecap:butt;stroke-linejoin:miter;stroke-opacity:1"
       d="m 31.938989,272.80952 c 0.818949,-0.44097 1.613215,-0.93123 2.456847,-1.32292 0.06388,-0.0297 0.123592,0.0683 0.188986,0.0945 0.09248,0.037 0.184751,0.0813 0.283483,0.0945 0.375959,0.0501 0.75538,0.0708 1.13393,0.0945 0.125746,0.008 0.251984,0 0.377976,0 0.06299,0 0.129225,-0.0199 0.188986,0 0.04226,0.0141 0.05224,0.0804 0.0945,0.0945 0.05976,0.0199 0.125992,0 0.188987,0 0.15749,0 0.314981,0 0.472471,0 0.377976,0 0.755952,0 1.133928,0 0.09827,0 0.492633,0.0186 0.566965,0 0.06833,-0.0171 0.120658,-0.0774 0.188986,-0.0945 0.06112,-0.0153 0.125992,0 0.18899,0 0.09449,0 0.188986,0 0.283482,0 0.063,0 0.127215,0.0124 0.188987,0 0.09767,-0.0195 0.185811,-0.075 0.283482,-0.0945 0.123547,-0.0247 0.254432,0.0247 0.377976,0 0.09767,-0.0195 0.185232,-0.0781 0.283483,-0.0945 0.09321,-0.0155 0.190822,0.0185 0.283482,0 0.06906,-0.0138 0.120661,-0.0774 0.188989,-0.0945 0.152787,-0.0382 0.318037,0.0309 0.472469,0 0.06906,-0.0138 0.120661,-0.0774 0.18899,-0.0945 0.06111,-0.0153 0.127873,0.0153 0.188986,0 0.06833,-0.0171 0.125992,-0.063 0.18899,-0.0945 0.09449,-0.0315 0.185811,-0.075 0.283482,-0.0945 0.06177,-0.0124 0.127214,0.0124 0.188987,0 0.248433,-0.0497 0.432969,-0.19209 0.661458,-0.28348 0.09248,-0.037 0.191,-0.0575 0.283482,-0.0945 0.130789,-0.0523 0.247187,-0.13667 0.377976,-0.18899 0.09248,-0.037 0.198073,-0.0432 0.283483,-0.0945 0.07639,-0.0458 0.117716,-0.13553 0.188989,-0.18899 0.193471,-0.1451 0.454123,-0.15908 0.661458,-0.28348 0.09738,-0.0584 0.186098,-0.13056 0.283483,-0.18899 0.06039,-0.0362 0.132641,-0.0522 0.188986,-0.0945 0.07127,-0.0534 0.117716,-0.13554 0.18899,-0.18899 0.05635,-0.0423 0.132641,-0.0522 0.188986,-0.0945 0.07127,-0.0535 0.117716,-0.13554 0.188989,-0.18899 0.05635,-0.0423 0.132641,-0.0522 0.188987,-0.0945 0.07127,-0.0534 0.117718,-0.13553 0.188989,-0.18898 0.112692,-0.0845 0.265285,-0.10447 0.377976,-0.18899 0.07127,-0.0535 0.117716,-0.13554 0.188989,-0.18899 0.05635,-0.0423 0.128593,-0.0583 0.188987,-0.0945 0.09738,-0.0584 0.1861,-0.13056 0.283482,-0.18899 0.06039,-0.0362 0.132644,-0.0522 0.18899,-0.0945 0.07127,-0.0534 0.117715,-0.13553 0.188986,-0.18899 0.05635,-0.0422 0.132644,-0.0522 0.188989,-0.0945 0.07127,-0.0534 0.116494,-0.1372 0.188987,-0.18899 1.644436,-0.98666 -0.188828,0.16525 0.661458,-0.47247 0.05635,-0.0423 0.134882,-0.0494 0.18899,-0.0945 0.136882,-0.11407 0.241093,-0.26391 0.377975,-0.37798 0.05411,-0.0451 0.132644,-0.0522 0.18899,-0.0945 0.07127,-0.0535 0.119419,-0.13334 0.188986,-0.18899 0.08868,-0.0709 0.194802,-0.11804 0.283483,-0.18899 0.194341,-0.15547 0.37112,-0.42008 0.566965,-0.56696 0.05635,-0.0423 0.132641,-0.0522 0.188986,-0.0945 0.351565,-0.26367 0.01,-0.14673 0.472472,-0.37797 0.08909,-0.0446 0.19807,-0.0433 0.283483,-0.0945 0.07639,-0.0458 0.117715,-0.13553 0.188986,-0.18898 0.05635,-0.0423 0.139187,-0.0447 0.188989,-0.0945 0.0498,-0.0498 0.04469,-0.13918 0.09449,-0.18899 0.354496,-0.35449 0.174207,-0.0598 0.472471,-0.28348 0.07127,-0.0535 0.117716,-0.13553 0.188987,-0.18899 0.05635,-0.0423 0.132644,-0.0522 0.188989,-0.0945 0.07127,-0.0534 0.117716,-0.13554 0.188987,-0.18899 0.05635,-0.0423 0.132643,-0.0522 0.188989,-0.0945 0.33065,-0.24799 0.07652,-0.10204 0.283483,-0.37798 0.186692,-0.24893 0.380269,-0.22354 0.566962,-0.47247 0.04226,-0.0563 0.05224,-0.13264 0.0945,-0.18899 0.05345,-0.0713 0.135533,-0.11771 0.188986,-0.18899 0.04226,-0.0563 0.04469,-0.13918 0.0945,-0.18898 0.0498,-0.0498 0.132641,-0.0522 0.188987,-0.0945 0.07127,-0.0534 0.117716,-0.13553 0.188989,-0.18898 0.05635,-0.0423 0.132641,-0.0522 0.188987,-0.0945 0.07127,-0.0534 0.125992,-0.12599 0.188989,-0.18899 0.063,-0.063 0.135533,-0.11771 0.188987,-0.18899 0.04226,-0.0563 0.03815,-0.14672 0.0945,-0.18898 0.07968,-0.0598 0.206962,-0.0307 0.283482,-0.0945 0.120986,-0.10082 0.185097,-0.25499 0.28348,-0.37797 0.02783,-0.0348 0.063,-0.063 0.0945,-0.0945 0.06299,-0.063 0.120547,-0.13195 0.188986,-0.18899 0.170157,-0.14179 0.424493,-0.2825 0.566965,-0.47247 0.04226,-0.0563 0.05542,-0.13038 0.09449,-0.18899 0.02471,-0.0371 0.063,-0.063 0.0945,-0.0945 0.06299,-0.063 0.125992,-0.12599 0.188986,-0.18899 0.063,-0.063 0.135536,-0.11771 0.18899,-0.18898 0.08452,-0.1127 0.104468,-0.26529 0.188986,-0.37798 0.186695,-0.24893 0.38027,-0.22354 0.566965,-0.47247 0.04226,-0.0564 0.05223,-0.13264 0.09449,-0.18899 0.247989,-0.33065 0.102034,-0.0765 0.377976,-0.28348 0.272476,-0.20436 0.122516,-0.13653 0.283483,-0.37798 0.02471,-0.0371 0.063,-0.063 0.0945,-0.0945 0.06299,-0.063 0.112593,-0.14315 0.188986,-0.18899 0.08541,-0.0513 0.198073,-0.0433 0.283483,-0.0945 0.227063,-0.13624 0.158416,-0.19038 0.283482,-0.37798 0.02471,-0.0371 0.063,-0.063 0.09449,-0.0945 0.125992,-0.126 0.251983,-0.25199 0.377975,-0.37798 0.063,-0.063 0.135536,-0.11772 0.18899,-0.18899 0.04226,-0.0563 0.04469,-0.13918 0.09449,-0.18899 0.0498,-0.0498 0.132643,-0.0522 0.188989,-0.0945 0.07127,-0.0534 0.125992,-0.12599 0.188987,-0.18899 0.188989,-0.18899 0.377976,-0.37797 0.566965,-0.56696 0.06299,-0.063 0.119419,-0.13334 0.188989,-0.18899 0.08868,-0.071 0.194799,-0.11804 0.28348,-0.18899 0.292425,-0.23394 0.110082,-0.15992 0.377978,-0.47247 0.173935,-0.20293 0.377976,-0.37797 0.566963,-0.56696 0.188989,-0.18899 0.364037,-0.39303 0.566965,-0.56697 0.08623,-0.0739 0.194799,-0.11804 0.283482,-0.18899 0.139134,-0.1113 0.251984,-0.25198 0.377976,-0.37797 0.063,-0.063 0.112593,-0.14315 0.188989,-0.18899 0.08541,-0.0513 0.19807,-0.0433 0.28348,-0.0945 0.0764,-0.0458 0.119422,-0.13334 0.188989,-0.18899 0.237403,-0.18992 0.518552,-0.28255 0.755952,-0.47247 0.06957,-0.0557 0.119422,-0.13334 0.188989,-0.18899 0.08868,-0.071 0.1948,-0.11804 0.283483,-0.18899 0.06957,-0.0557 0.119419,-0.13333 0.188986,-0.18899 0.08868,-0.0709 0.194802,-0.11804 0.283483,-0.18898 0.06957,-0.0557 0.114861,-0.13957 0.188989,-0.18899 0.117205,-0.0781 0.260771,-0.11086 0.377976,-0.18899 0.07413,-0.0494 0.112593,-0.14315 0.188986,-0.18899 0.08541,-0.0513 0.194395,-0.0499 0.283483,-0.0945 0.203158,-0.10158 0.36381,-0.2764 0.566965,-0.37798 0.08909,-0.0445 0.194392,-0.0499 0.283483,-0.0945 0.203155,-0.10158 0.363807,-0.2764 0.566965,-0.37798 0.08909,-0.0445 0.198069,-0.0433 0.283479,-0.0945 0.0764,-0.0458 0.112596,-0.14316 0.18899,-0.18899 0.0031,-0.002 0.554717,-0.18409 0.566965,-0.18899 0.06539,-0.0262 0.123592,-0.0683 0.188986,-0.0945 0.184963,-0.074 0.38386,-0.11052 0.566965,-0.18899 0.129474,-0.0555 0.248502,-0.1335 0.377976,-0.18899 0.183105,-0.0785 0.377976,-0.12599 0.566965,-0.18899 0.376978,-0.12566 0.753737,-0.26392 1.133928,-0.37798 0.125991,-0.0315 0.251983,-0.063 0.377975,-0.0945 0.063,0 0.127492,0.0137 0.18899,0 0.223848,-0.0497 0.441819,-0.1231 0.661458,-0.18899 0.285618,-0.0857 0.567542,-0.18918 0.850447,-0.28348 0.09449,-0.0315 0.184878,-0.0804 0.28348,-0.0945 0.124728,-0.0178 0.253252,0.0178 0.377979,0 0.0986,-0.0141 0.188986,-0.063 0.28348,-0.0945 0.0945,-0.0315 0.188989,-0.063 0.283482,-0.0945 0.0945,-0.0315 0.184878,-0.0804 0.283483,-0.0945 0.124727,-0.0178 0.253251,0.0178 0.377976,0 0.0986,-0.0141 0.184877,-0.0804 0.283482,-0.0945 0.124727,-0.0178 0.253251,0.0178 0.377976,0 0.0986,-0.0141 0.185232,-0.0781 0.283482,-0.0945 0.09321,-0.0155 0.189939,0.0134 0.283483,0 0.128564,-0.0184 0.249412,-0.0761 0.377976,-0.0945 0.187089,-0.0267 0.380547,0.0311 0.566965,0 0.09825,-0.0164 0.184877,-0.0804 0.283482,-0.0945 0.124725,-0.0178 0.251984,0 0.377976,0 0.188987,0 0.377976,0 0.566965,0 0.125992,0 0.253249,0.0178 0.377976,0 0.09861,-0.0141 0.184877,-0.0804 0.283482,-0.0945 0.124725,-0.0178 0.251984,0 0.377976,0 0.377976,0 0.755952,0 1.133928,0 0.598463,0 1.196924,0 1.795388,0 0.125992,0 0.251984,0 0.377976,0 0.125992,0 0.252957,-0.0156 0.377976,0 0.128865,0.0161 0.249107,0.0784 0.377975,0.0945 0.218784,0.0274 0.443188,-0.0312 0.661459,0 0.128563,0.0184 0.24911,0.0784 0.377976,0.0945 0.125018,0.0156 0.254015,-0.0225 0.377975,0 0.225611,0.041 0.436603,0.14402 0.661459,0.18899 0.09266,0.0185 0.189939,-0.0134 0.283482,0 0.295405,0.0422 0.392216,0.11206 0.661459,0.18899 0.249745,0.0713 0.506206,0.11763 0.755951,0.18899 0.09577,0.0274 0.187711,0.0671 0.283483,0.0945 0.249745,0.0714 0.506208,0.11763 0.755954,0.18899 0.09577,0.0274 0.187709,0.0671 0.28348,0.0945 0.239757,0.0685 0.434895,0.0919 0.661458,0.18899 0.129474,0.0555 0.248505,0.1335 0.377979,0.18899 0.304352,0.13044 0.640585,0.15304 0.944938,0.28348 0.129474,0.0555 0.248504,0.1335 0.377978,0.18899 0.09155,0.0392 0.191929,0.0553 0.28348,0.0945 0.129474,0.0555 0.246084,0.13953 0.377979,0.18899 0.121599,0.0456 0.258606,0.0433 0.377975,0.0945 0.104384,0.0447 0.188987,0.12599 0.283483,0.18898 0.09449,0.063 0.188986,0.126 0.28348,0.18899 0.0945,0.063 0.179099,0.14425 0.283482,0.18899 0.11937,0.0512 0.258609,0.0433 0.377976,0.0945 0.104386,0.0447 0.188989,0.126 0.283483,0.18899 0.317838,0.21189 0.284665,0.20671 0.661458,0.37798 0.220488,0.0945 0.440973,0.18899 0.661458,0.28348 0.0945,0.063 0.181904,0.1382 0.283483,0.18899 0.08909,0.0445 0.194392,0.0499 0.283482,0.0945 0.227134,0.11357 0.438521,0.25638 0.661459,0.37798 0.185494,0.10118 0.382259,0.18087 0.566965,0.28348 0.221988,0.12333 0.443701,0.24732 0.661458,0.37798 0.232346,0.0314 0.30144,0.27108 0.472469,0.37797 0.179187,0.11199 0.382267,0.18087 0.566967,0.28349 0.23235,0.0314 0.30144,0.27108 0.47247,0.37797 0.17918,0.11199 0.38226,0.18087 0.56697,0.28348 0.19855,0.11031 0.37797,0.25199 0.56696,0.37798 0.0945,0.063 0.1948,0.11804 0.28348,0.18899 0.0696,0.0557 0.1126,0.14315 0.18899,0.18899 0.0854,0.0512 0.19439,0.0499 0.28348,0.0945 0.10158,0.0508 0.18899,0.12599 0.28349,0.18899 0.0945,0.063 0.19479,0.11804 0.28348,0.18899 0.13913,0.11131 0.22518,0.2863 0.37797,0.37797 0.69864,0.41919 -0.1499,-0.29001 0.56697,0.28349 0.29297,0.23437 0.0847,0.18407 0.47247,0.37797 0.0891,0.0445 0.19807,0.0433 0.28348,0.0945 0.0764,0.0458 0.11942,0.13333 0.18899,0.18898 0.11048,0.17149 0.32554,0.17329 0.47247,0.28348 0.0713,0.0535 0.11259,0.14316 0.18899,0.18899 0.0854,0.0513 0.19807,0.0433 0.28348,0.0945 0.0764,0.0458 0.11942,0.13333 0.18899,0.18899 0.11048,0.17148 0.32554,0.17328 0.47247,0.28348 0.14254,0.10691 0.23543,0.27107 0.37797,0.37797 0.0564,0.0423 0.1286,0.0583 0.18899,0.0945 0.17535,0.1052 0.52431,0.35817 0.66146,0.47247 0.13688,0.11407 0.24109,0.26391 0.37798,0.37798 0.12098,0.10082 0.25699,0.18265 0.37797,0.28348 0.12368,0.10306 0.2543,0.27491 0.37798,0.37797 0.12099,0.10083 0.26661,0.17212 0.37798,0.28349 0.28139,0.28139 -0.14133,0.12309 0.28348,0.37797 0.0854,0.0512 0.19807,0.0433 0.28348,0.0945 0.0764,0.0458 0.11772,0.13553 0.18899,0.18898 0.0563,0.0423 0.13264,0.0522 0.18898,0.0945 0.14255,0.10691 0.23544,0.27107 0.37798,0.37797 0.0564,0.0423 0.13919,0.0447 0.18899,0.0945 0.0498,0.0498 0.0447,0.13918 0.0945,0.18899 0.0498,0.0498 0.126,0.063 0.18899,0.0945 0.063,0.0315 0.12599,0.063 0.18899,0.0945 0.68514,0.34257 -0.14941,-0.0996 0.28348,0.18899 0.17445,0.1163 0.39251,0.16718 0.56697,0.28348 0.0371,0.0247 0.0574,0.0698 0.0945,0.0945 0.11721,0.0781 0.26077,0.11085 0.37798,0.18899 0.0371,0.0247 0.0574,0.0698 0.0945,0.0945 0.11721,0.0781 0.26077,0.11085 0.37798,0.18899 0.0371,0.0247 0.0522,0.0804 0.0945,0.0945 0.0598,0.0199 0.12922,-0.0199 0.18899,0 0.0423,0.0141 0.0574,0.0698 0.0945,0.0945 -0.0108,0.17901 0.22049,0.063 0.28348,0.0945 0.0399,0.0199 0.0574,0.0698 0.0945,0.0945 0.0586,0.0391 0.13038,0.0554 0.18899,0.0945 0.0371,0.0247 0.0546,0.0746 0.0945,0.0945 0.0892,0.23433 0.25477,0.0534 0.37798,0.0945 0.0668,0.0223 0.12359,0.0683 0.18899,0.0945 0.0925,0.037 0.19439,0.0499 0.28348,0.0945 0.0797,0.0399 0.11486,0.13957 0.18898,0.18899 0.47737,0.31825 0.002,8e-4 0.28349,0.0945 0.13363,0.0445 0.24434,0.14444 0.37797,0.18899 0.0299,0.01 0.0663,-0.0141 0.0945,0 0.0398,0.0199 0.0546,0.0746 0.0945,0.0945 0.0282,0.0141 0.0663,-0.0141 0.0945,0 0.0398,0.0199 0.0547,0.0746 0.0945,0.0945 0.0563,0.0282 0.13264,-0.0282 0.18899,0 0.0398,0.0199 0.0547,0.0746 0.0945,0.0945 0.0282,0.0141 0.0663,-0.0141 0.0945,0 0.0398,0.0199 0.0547,0.0746 0.0945,0.0945 0.0282,0.0141 0.0663,-0.0141 0.0945,0 0.0399,0.0199 0.0547,0.0746 0.0945,0.0945 0.0375,0.0187 0.26416,-0.0193 0.28348,0 0.0223,0.0223 -0.0223,0.0722 0,0.0945 0.0223,0.0223 0.063,0 0.0945,0 0.0315,0 0.063,0 0.0945,0 0.0229,0 0.28044,-0.003 0.28348,0 0.0223,0.0223 0,0.063 0,0.0945"
       id="path833"
       inkscape:connector-curvature="0" />
    <text
       xml:space="preserve"
       style="font-style:normal;font-variant:normal;font-weight:normal;font-stretch:normal;font-size:4.23333311px;line-height:1.25;font-family:sans-serif;-inkscape-font-specification:'sans-serif, Normal';font-variant-ligatures:normal;font-variant-caps:normal;font-variant-numeric:normal;text-align:start;letter-spacing:0px;word-spacing:0px;writing-mode:lr-tb;text-anchor:start;fill:#000000;fill-opacity:1;stroke:none;stroke-width:0.26458332"
       x="120.85789"
       y="263.92706"
       id="text837"><tspan
         sodipodi:role="line"
         id="tspan835"
         x="120.85789"
         y="263.92706"
         style="stroke-width:0.26458332">profit</tspan></text>
    <path
       style="fill:none;stroke:#000000;stroke-width:0.26458332px;stroke-linecap:butt;stroke-linejoin:miter;stroke-opacity:1"
       d="m 31.938989,272.80952 c 0.0085,0.004 2.411134,0.97204 3.212796,1.41741 0.09928,0.0552 0.179099,0.14426 0.283482,0.18899 0.119369,0.0512 0.261818,0.0364 0.377976,0.0945 0.454271,0.22714 0.881946,0.50397 1.322916,0.75596 0.220488,0.12599 0.434325,0.26441 0.661459,0.37797 0.214558,0.10728 0.444082,0.18204 0.661458,0.28349 0.382945,0.1787 0.745509,0.40049 1.13393,0.56696 0.09155,0.0392 0.192805,0.0533 0.283483,0.0945 0.384712,0.17486 0.745506,0.40049 1.133927,0.56696 0.09155,0.0392 0.191932,0.0553 0.283483,0.0945 0.258947,0.11098 0.492162,0.27906 0.755951,0.37798 0.121603,0.0456 0.256376,0.0489 0.377976,0.0945 0.131895,0.0495 0.246084,0.13953 0.377979,0.18899 0.121599,0.0456 0.251983,0.063 0.377975,0.0945 0.377976,0.0945 0.755952,0.18898 1.133928,0.28348 0.125992,0.0315 0.253103,0.0588 0.377976,0.0945 0.24407,0.0697 0.398877,0.15617 0.661458,0.18899 0.125021,0.0156 0.253251,-0.0178 0.377976,0 0.0986,0.0141 0.184877,0.0804 0.283482,0.0945 0.124727,0.0178 0.251984,0 0.377976,0 0.498041,0 0.257913,0 0.755954,0 0.220486,0 0.440971,0 0.661459,0 0.125992,0 0.252955,0.0156 0.377975,0 0.128866,-0.0161 0.249108,-0.0784 0.377976,-0.0945 0.125019,-0.0156 0.253251,0.0178 0.377976,0 0.0986,-0.0141 0.184878,-0.0804 0.283483,-0.0945 0.124724,-0.0178 0.253251,0.0178 0.377975,0 0.0021,-2.6e-4 0.558483,-0.18656 0.566965,-0.18898 0.249746,-0.0714 0.506207,-0.11764 0.755952,-0.18899 0.09577,-0.0274 0.187709,-0.0671 0.283483,-0.0945 0.249745,-0.0714 0.512751,-0.0978 0.755951,-0.18899 0.131895,-0.0495 0.246081,-0.13953 0.377976,-0.18899 0.121602,-0.0456 0.255926,-0.0501 0.377978,-0.0945 0.388742,-0.062 0.683075,-0.33883 1.039435,-0.47247 0.121599,-0.0456 0.263964,-0.0323 0.377975,-0.0945 0.305904,-0.16686 0.623769,-0.47793 0.944941,-0.66146 0.122304,-0.0699 0.255672,-0.1191 0.377976,-0.18899 0.0986,-0.0563 0.188987,-0.12599 0.283483,-0.18898 0.09449,-0.063 0.196236,-0.11629 0.283482,-0.18899 0.102661,-0.0855 0.180819,-0.19793 0.28348,-0.28348 0.08725,-0.0727 0.188989,-0.126 0.283482,-0.18899 0.125992,-0.0945 0.258403,-0.18099 0.377976,-0.28348 0.202928,-0.17394 0.361643,-0.39587 0.566965,-0.56697 0.08725,-0.0727 0.196236,-0.11628 0.283483,-0.18899 0.102661,-0.0855 0.18202,-0.19651 0.283482,-0.28348 0.119576,-0.10249 0.2584,-0.18099 0.377976,-0.28348 0.101463,-0.087 0.188989,-0.18899 0.283483,-0.28348 0.125992,-0.12599 0.251984,-0.25199 0.377975,-0.37798 0.346478,-0.34648 0.692957,-0.69296 1.039435,-1.03943 0.220485,-0.22049 0.440973,-0.44098 0.661458,-0.66146 0.125992,-0.12599 0.260644,-0.24388 0.377976,-0.37798 0.207417,-0.23704 0.361979,-0.5168 0.566965,-0.75595 0.08697,-0.10146 0.205809,-0.17474 0.283482,-0.28348 0.08188,-0.11463 0.114329,-0.25853 0.188987,-0.37798 0.338021,-0.54083 0.205933,-0.19501 0.472472,-0.66146 0.06989,-0.1223 0.107111,-0.26335 0.188986,-0.37797 0.07767,-0.10875 0.206849,-0.17401 0.283483,-0.28349 0.145629,-0.20804 0.247322,-0.4437 0.377975,-0.66145 0.349015,-0.58169 0.02191,-0.0274 0.377979,-0.47247 0.07094,-0.0887 0.108683,-0.20318 0.188987,-0.28349 0.0803,-0.0803 0.198014,-0.1142 0.283482,-0.18899 0.167616,-0.14666 0.314981,-0.31497 0.472469,-0.47246 0.157491,-0.15749 0.314981,-0.31499 0.472472,-0.47248 0.15749,-0.15748 0.304853,-0.3258 0.472469,-0.47247 0.08547,-0.0748 0.196239,-0.11628 0.283483,-0.18898 0.10266,-0.0856 0.180821,-0.19793 0.283482,-0.28348 0.08725,-0.0727 0.196236,-0.11629 0.283483,-0.18899 0.102661,-0.0856 0.188986,-0.18899 0.283482,-0.28349 0.157488,-0.15749 0.314979,-0.31497 0.472469,-0.47247 0.063,-0.063 0.11942,-0.13333 0.188989,-0.18898 0.177364,-0.14189 0.389602,-0.23609 0.566963,-0.37798 0.06957,-0.0557 0.119422,-0.13333 0.188989,-0.18899 0.177363,-0.14189 0.389602,-0.23608 0.566965,-0.37798 0.06957,-0.0556 0.11942,-0.13333 0.188987,-0.18898 0.08868,-0.071 0.188989,-0.12599 0.283482,-0.18899 0.09449,-0.063 0.1861,-0.13056 0.283483,-0.18899 0.06039,-0.0362 0.128592,-0.0583 0.188989,-0.0945 0.234788,-0.0274 0.299524,-0.27421 0.472469,-0.37798 0.08541,-0.0512 0.194392,-0.05 0.283482,-0.0945 0.203156,-0.10158 0.372198,-0.26112 0.566966,-0.37798 0.06039,-0.0362 0.128592,-0.0583 0.188986,-0.0945 0.29182,-0.17509 0.558628,-0.39188 0.850448,-0.56697 0.06039,-0.0362 0.128592,-0.0583 0.188986,-0.0945 0.09739,-0.0584 0.1861,-0.13056 0.283483,-0.18899 0.12079,-0.0725 0.247187,-0.13667 0.377976,-0.18899 0.09248,-0.037 0.198072,-0.0432 0.283482,-0.0945 0.07639,-0.0458 0.117716,-0.13554 0.188989,-0.18899 0.12663,-0.095 0.336347,-0.13454 0.472469,-0.18899 0.130789,-0.0523 0.251984,-0.12599 0.377976,-0.18899 0.125992,-0.063 0.260771,-0.11085 0.377976,-0.18898 0.03706,-0.0247 0.0563,-0.0716 0.0945,-0.0945 0.125992,-0.063 0.251984,-0.12599 0.377976,-0.18899 0.0315,0 0.06461,0.01 0.09449,0 0.06682,-0.0223 0.123595,-0.0683 0.188989,-0.0945 0.09248,-0.037 0.194392,-0.05 0.283483,-0.0945 0.03984,-0.0199 0.05465,-0.0746 0.09449,-0.0945 0.694526,-0.23151 0.04812,0.0309 0.377976,-0.18899 0.0586,-0.0391 0.122171,-0.0722 0.188989,-0.0945 0.05976,-0.0199 0.144441,0.0445 0.188987,0 0.02228,-0.0223 -0.02228,-0.0722 0,-0.0945 0.02228,-0.0223 0.06632,0.0141 0.09449,0 0.03984,-0.0199 0.05465,-0.0746 0.0945,-0.0945 0.02817,-0.0141 0.06632,0.0141 0.09449,0 0.03984,-0.0199 0.05465,-0.0746 0.09449,-0.0945 0.02817,-0.0141 0.06461,0.01 0.0945,0 0.06682,-0.0223 0.122169,-0.0722 0.188987,-0.0945 0.02988,-0.01 0.06632,0.0141 0.09449,0 0.03984,-0.0199 0.05224,-0.0804 0.0945,-0.0945 0.08505,-0.0283 0.198438,0.0283 0.283483,0 0.06682,-0.0223 0.122168,-0.0722 0.188986,-0.0945 0.09092,-0.0303 0.279101,0.0247 0.377976,0 0.09663,-0.0242 0.185812,-0.075 0.283483,-0.0945 0.06177,-0.0124 0.125992,0 0.188989,0 0.188986,0 0.377976,0 0.566962,0 0.0315,0 0.06461,0.01 0.0945,0 0.06682,-0.0223 0.120658,-0.0774 0.188987,-0.0945 0.07433,-0.0186 0.468699,0 0.566965,0 0.136657,0 0.561673,-0.0199 0.661458,0 0.06906,0.0138 0.119925,0.0807 0.188989,0.0945 0.212035,0.0424 0.447064,-0.0306 0.661459,0 0.158993,0.0227 0.3131,0.0746 0.472469,0.0945 0.156273,0.0195 0.31804,-0.0309 0.472469,0 0.09767,0.0195 0.185811,0.075 0.283482,0.0945 0.154432,0.0309 0.317125,-0.0259 0.472472,0 0.09825,0.0164 0.185232,0.0781 0.283483,0.0945 0.09321,0.0155 0.190272,-0.0155 0.28348,0 0.09825,0.0164 0.184877,0.0804 0.283482,0.0945 0.218271,0.0312 0.443974,-0.0362 0.661458,0 0.09825,0.0164 0.18899,0.063 0.283483,0.0945 0.125992,0 0.253251,-0.0178 0.377976,0 0.58933,0.0842 -0.05883,0.0861 0.661458,0.18899 0.09355,0.0134 0.188989,0 0.283483,0 0.09449,0.0315 0.185232,0.0781 0.283482,0.0945 0.09321,0.0155 0.190275,-0.0155 0.283483,0 0.09825,0.0164 0.186851,0.0703 0.283482,0.0945 0.912225,0.22805 0.10795,-0.027 0.755952,0.18898 0.09449,0.0315 0.191,0.0575 0.283482,0.0945 0.0654,0.0262 0.119925,0.0807 0.188987,0.0945 0.09266,0.0185 0.190275,-0.0155 0.283482,0 0.09825,0.0164 0.18899,0.063 0.283483,0.0945 0.283482,0.0945 0.570656,0.17856 0.850447,0.28348 0.325451,0.12204 0.05517,0.0963 0.47247,0.18899 0.187033,0.0416 0.379931,0.0529 0.566965,0.0945 0.09723,0.0216 0.185811,0.075 0.283482,0.0945 0.06177,0.0124 0.127873,-0.0153 0.188987,0 0.193265,0.0483 0.372499,0.14577 0.566965,0.18899 0.09224,0.0205 0.190275,-0.0155 0.283482,0 0.09825,0.0164 0.185812,0.075 0.283483,0.0945 0.154432,0.0309 0.317121,-0.0259 0.472469,0 0.09825,0.0164 0.185232,0.0781 0.283482,0.0945 0.222364,0.0371 0.538658,-0.0435 0.755952,0 0.06906,0.0138 0.119925,0.0807 0.188989,0.0945 0.72086,0 -0.07454,-0.0423 0.472469,0.0945 0.122232,0.0306 0.255747,-0.0306 0.377976,0 0.06833,0.0171 0.120661,0.0774 0.188989,0.0945 0.06112,0.0153 0.127873,-0.0153 0.18899,0 0.06833,0.0171 0.120657,0.0774 0.188986,0.0945 0.06112,0.0153 0.127873,-0.0153 0.188989,0 0.06833,0.0171 0.120658,0.0774 0.188987,0.0945 0.128714,0.0322 0.452646,-0.0381 0.566965,0 0.04226,0.0141 0.05223,0.0804 0.09449,0.0945 0.05976,0.0199 0.127873,-0.0153 0.188989,0 0.06833,0.0171 0.120658,0.0774 0.188987,0.0945 0.122232,0.0306 0.255746,-0.0306 0.377979,0 0.06833,0.0171 0.120657,0.0774 0.188986,0.0945 0.06112,0.0153 0.127873,-0.0153 0.188989,0 0.06833,0.0171 0.120658,0.0774 0.188987,0.0945 0.06112,0.0153 0.127873,-0.0153 0.188989,0 0.06833,0.0171 0.120658,0.0774 0.188987,0.0945 0.152789,0.0382 0.318039,-0.0309 0.472471,0 0.06906,0.0138 0.122172,0.0722 0.188987,0.0945 0.123206,0.0411 0.249875,0.0731 0.377978,0.0945 0.06214,0.0104 0.125992,0 0.188987,0 0.0315,0 0.06461,-0.01 0.09449,0 0.06682,0.0223 0.120664,0.0774 0.188994,0.0945 0.0642,0.016 0.34413,-0.0321 0.47247,0 0.0432,0.0108 0.0522,0.0804 0.0945,0.0945 0.11953,0.0398 0.25575,-0.0306 0.37798,0 0.0683,0.0171 0.12599,0.063 0.18899,0.0945 0.0945,0 0.19082,-0.0185 0.28348,0 0.0691,0.0138 0.11992,0.0807 0.18899,0.0945 0.0927,0.0185 0.19082,-0.0185 0.28348,0 0.13813,0.0276 0.24132,0.15482 0.37798,0.18898 0.12223,0.0306 0.25574,-0.0306 0.37797,0 0.0683,0.0171 0.12599,0.063 0.18899,0.0945 0.0945,0.0315 0.18581,0.075 0.28348,0.0945 0.12355,0.0247 0.25575,-0.0306 0.37798,0 0.0683,0.0171 0.12066,0.0774 0.18899,0.0945 0.12223,0.0306 0.25574,-0.0306 0.37797,0 0.0683,0.0171 0.12066,0.0774 0.18899,0.0945 0.0611,0.0153 0.12599,0 0.18899,0 0.063,0 0.12599,0 0.18899,0 0.0315,0 0.0646,-0.01 0.0945,0 0.0668,0.0223 0.12066,0.0774 0.18899,0.0945 0.0857,0.0214 0.3627,0 0.47247,0 0.0315,0 0.0639,-0.008 0.0945,0 0.0966,0.0241 0.18523,0.0781 0.28348,0.0945 0.0932,0.0155 0.18898,0 0.28348,0 0.0315,0 0.0646,-0.01 0.0945,0 0.0668,0.0223 0.11993,0.0807 0.18899,0.0945 0.11049,0.0221 0.42122,0 0.56697,0 0.44097,0 0.88194,0 1.32291,0"
       id="path841"
       inkscape:connector-curvature="0" />
  </g>
</svg>
