<?xml version="1.0" encoding="UTF-8" standalone="no"?>
<!-- Created with Inkscape (http://www.inkscape.org/) -->

<svg
   xmlns:dc="http://purl.org/dc/elements/1.1/"
   xmlns:cc="http://creativecommons.org/ns#"
   xmlns:rdf="http://www.w3.org/1999/02/22-rdf-syntax-ns#"
   xmlns:svg="http://www.w3.org/2000/svg"
   xmlns="http://www.w3.org/2000/svg"
   xmlns:sodipodi="http://sodipodi.sourceforge.net/DTD/sodipodi-0.dtd"
   xmlns:inkscape="http://www.inkscape.org/namespaces/inkscape"
   width="157mm"
   height="101mm"
   viewBox="0 0 157 101"
   version="1.1"
   id="svg8"
   inkscape:version="0.92.4 (5da689c313, 2019-01-14)"
   sodipodi:docname="arbu.svg">
  <defs
     id="defs2">
    <marker
       inkscape:stockid="Arrow1Lend"
       orient="auto"
       refY="0"
       refX="0"
       id="Arrow1Lend"
       style="overflow:visible"
       inkscape:isstock="true">
      <path
         id="path4527"
         d="M 0,0 5,-5 -12.5,0 5,5 Z"
         style="fill:#000000;fill-opacity:1;fill-rule:evenodd;stroke:#000000;stroke-width:1.00000003pt;stroke-opacity:1"
         transform="matrix(-0.8,0,0,-0.8,-10,0)"
         inkscape:connector-curvature="0" />
    </marker>
  </defs>
  <sodipodi:namedview
     id="base"
     pagecolor="#ffffff"
     bordercolor="#666666"
     borderopacity="1.0"
     inkscape:pageopacity="0.0"
     inkscape:pageshadow="2"
     inkscape:zoom="1.979899"
     inkscape:cx="363.55242"
     inkscape:cy="249.54311"
     inkscape:document-units="mm"
     inkscape:current-layer="layer1"
     showgrid="false"
     inkscape:window-width="2736"
     inkscape:window-height="1699"
     inkscape:window-x="-13"
     inkscape:window-y="-13"
     inkscape:window-maximized="1"
     width="157mm"
     fit-margin-top="2.7755576e-17"
     fit-margin-left="0"
     fit-margin-right="0"
     fit-margin-bottom="0"
     showguides="true" />
  <metadata
     id="metadata5">
    <rdf:RDF>
      <cc:Work
         rdf:about="">
        <dc:format>image/svg+xml</dc:format>
        <dc:type
           rdf:resource="http://purl.org/dc/dcmitype/StillImage" />
        <dc:title />
      </cc:Work>
    </rdf:RDF>
  </metadata>
  <g
     inkscape:label="Layer 1"
     inkscape:groupmode="layer"
     id="layer1"
     transform="translate(0,-196)">
    <circle
       style="fill:#000000;fill-opacity:0;stroke:#000000;stroke-width:0.26499999;stroke-miterlimit:4;stroke-dasharray:none;stroke-opacity:1"
       id="path831"
       cx="62.2738"
       cy="208.93469"
       r="7.8844509" />
    <circle
       style="fill:#000000;fill-opacity:0;stroke:#000000;stroke-width:0.26499999;stroke-miterlimit:4;stroke-dasharray:none;stroke-opacity:1"
       id="path831-0"
       cx="30.869627"
       cy="232.3876"
       r="7.8844509" />
    <circle
       style="fill:#000000;fill-opacity:0;stroke:#000000;stroke-width:0.26499999;stroke-miterlimit:4;stroke-dasharray:none;stroke-opacity:1"
       id="path831-9"
       cx="60.536549"
       cy="232.3876"
       r="7.8844509" />
    <circle
       style="fill:#000000;fill-opacity:0;stroke:#000000;stroke-width:0.26499999;stroke-miterlimit:4;stroke-dasharray:none;stroke-opacity:1"
       id="path831-3"
       cx="93.277069"
       cy="232.3876"
       r="7.8844509" />
    <circle
       style="fill:#000000;fill-opacity:0;stroke:#000000;stroke-width:0.26499999;stroke-miterlimit:4;stroke-dasharray:none;stroke-opacity:1"
       id="path831-9-4"
       cx="46.9058"
       cy="269.93896"
       r="7.8844509" />
    <circle
       style="fill:#000000;fill-opacity:0;stroke:#000000;stroke-width:0.26499999;stroke-miterlimit:4;stroke-dasharray:none;stroke-opacity:1"
       id="path831-9-7"
       cx="70.96006"
       cy="269.93896"
       r="7.8844509" />
    <circle
       style="fill:#000000;fill-opacity:0;stroke:#000000;stroke-width:0.26499999;stroke-miterlimit:4;stroke-dasharray:none;stroke-opacity:1"
       id="path831-9-7-8"
       cx="103.0324"
       cy="269.93896"
       r="7.8844509" />
    <path
       style="fill:none;stroke:#000000;stroke-width:0.26458332px;stroke-linecap:butt;stroke-linejoin:miter;stroke-opacity:1"
       d="M 53.85481,215.21552 C 37.284099,225.63903 37.284099,225.63903 37.284099,225.63903"
       id="path898"
       inkscape:connector-curvature="0" />
    <path
       style="fill:none;stroke:#000000;stroke-width:0.26458332px;stroke-linecap:butt;stroke-linejoin:miter;stroke-opacity:1"
       d="m 62.941974,218.42276 c -0.801809,5.21175 -0.801809,5.07812 -0.801809,5.07812"
       id="path900"
       inkscape:connector-curvature="0" />
    <path
       style="fill:none;stroke:#000000;stroke-width:0.26458332px;stroke-linecap:butt;stroke-linejoin:miter;stroke-opacity:1"
       d="m 72.029137,214.14645 c 13.497112,9.75533 13.898014,10.42351 13.898014,10.42351"
       id="path902"
       inkscape:connector-curvature="0" />
    <path
       style="fill:none;stroke:#000000;stroke-width:0.26458332px;stroke-linecap:butt;stroke-linejoin:miter;stroke-opacity:1"
       d="m 58.66566,241.00703 c -8.418989,17.90706 -8.418989,17.90706 -8.418989,17.90706"
       id="path904"
       inkscape:connector-curvature="0" />
    <path
       style="fill:none;stroke:#000000;stroke-width:0.26458332px;stroke-linecap:butt;stroke-linejoin:miter;stroke-opacity:1"
       d="m 63.075608,239.40342 c 6.815372,22.71791 6.815372,22.71791 6.815372,22.71791"
       id="path906"
       inkscape:connector-curvature="0" />
    <path
       style="fill:none;stroke:#000000;stroke-width:0.26458332px;stroke-linecap:butt;stroke-linejoin:miter;stroke-opacity:1"
       d="m 68.821902,236.99799 c 30.067822,25.12334 30.067822,25.12334 30.067822,25.12334"
       id="path908"
       inkscape:connector-curvature="0" />
    <path
       style="fill:none;stroke:#f10000;stroke-width:0.26458332px;stroke-linecap:butt;stroke-linejoin:miter;stroke-opacity:1"
       d="m 59.868373,206.26199 c 0.935443,2.6727 0.935443,2.6727 0.935443,2.6727 l 3.741774,-4.00904"
       id="path910"
       inkscape:connector-curvature="0" />
    <text
       xml:space="preserve"
       style="font-style:normal;font-variant:normal;font-weight:normal;font-stretch:normal;font-size:4.23333311px;line-height:1.25;font-family:sans-serif;-inkscape-font-specification:'sans-serif, Normal';font-variant-ligatures:normal;font-variant-caps:normal;font-variant-numeric:normal;text-align:start;letter-spacing:0px;word-spacing:0px;writing-mode:lr-tb;text-anchor:start;fill:#000000;fill-opacity:1;stroke:none;stroke-width:0.26458332"
       x="24.856064"
       y="233.79076"
       id="text914"><tspan
         sodipodi:role="line"
         id="tspan912"
         x="24.856064"
         y="233.79076"
         style="stroke-width:0.26458332">Zerid</tspan></text>
    <text
       xml:space="preserve"
       style="font-style:normal;font-variant:normal;font-weight:normal;font-stretch:normal;font-size:4.23333311px;line-height:1.25;font-family:sans-serif;-inkscape-font-specification:'sans-serif, Normal';font-variant-ligatures:normal;font-variant-caps:normal;font-variant-numeric:normal;text-align:start;letter-spacing:0px;word-spacing:0px;writing-mode:lr-tb;text-anchor:start;fill:#000000;fill-opacity:1;stroke:none;stroke-width:0.26458332"
       x="12.695303"
       y="246.75333"
       id="text918"><tspan
         sodipodi:role="line"
         x="12.695303"
         y="246.75333"
         style="stroke-width:0.26458332"
         id="tspan920">$f(zerid) = h(zerid)$</tspan><tspan
         sodipodi:role="line"
         x="12.695303"
         y="252.09779"
         style="stroke-width:0.26458332"
         id="tspan924">$= 384$</tspan></text>
    <text
       xml:space="preserve"
       style="font-style:normal;font-variant:normal;font-weight:normal;font-stretch:normal;font-size:4.23333311px;line-height:1.25;font-family:sans-serif;-inkscape-font-specification:'sans-serif, Normal';font-variant-ligatures:normal;font-variant-caps:normal;font-variant-numeric:normal;text-align:start;letter-spacing:0px;word-spacing:0px;writing-mode:lr-tb;text-anchor:start;fill:#000000;fill-opacity:1;stroke:none;stroke-width:0.26458332"
       x="57.730217"
       y="233.25621"
       id="text928"><tspan
         sodipodi:role="line"
         id="tspan926"
         x="57.730217"
         y="233.25621"
         style="stroke-width:0.26458332">Sibih</tspan></text>
    <path
       style="fill:none;stroke:#000000;stroke-width:0.26499999;stroke-linecap:butt;stroke-linejoin:miter;stroke-opacity:1;stroke-miterlimit:4;stroke-dasharray:0.26499999,2.1199999;stroke-dashoffset:0"
       d="m 104.10148,258.11228 c -0.48999,0 -0.97999,0 -1.46998,0 -0.13364,0 -0.26987,-0.0262 -0.40091,0 -0.0977,0.0195 -0.17818,0.0891 -0.26727,0.13364 -0.13363,0.0445 -0.26195,0.11047 -0.4009,0.13363 -0.13182,0.022 -0.28138,-0.0598 -0.4009,0 -0.0891,0.0446 -0.0632,0.19684 -0.13364,0.26727 -0.0704,0.0704 -0.18439,0.0784 -0.26727,0.13364 -0.0524,0.0349 -0.0773,0.10546 -0.13363,0.13363 -0.126,0.063 -0.2837,0.0555 -0.40091,0.13364 -0.15725,0.10483 -0.243654,0.29607 -0.400902,0.4009 -0.117205,0.0781 -0.280117,0.0612 -0.400904,0.13364 -0.108037,0.0648 -0.159232,0.20244 -0.267269,0.26726 -0.12079,0.0725 -0.271431,0.0781 -0.400905,0.13364 -0.900874,0.38609 -0.188984,0.16131 -1.202713,0.66817 -0.125992,0.063 -0.267269,0.0891 -0.400905,0.13364 -0.267269,0.0891 -0.528492,0.19894 -0.801809,0.26727 -0.08643,0.0216 -0.182751,-0.0282 -0.267269,0 -0.321834,0.10728 -0.608153,0.31164 -0.935442,0.4009 -0.171903,0.0469 -0.356976,-0.0148 -0.534541,0 -0.357891,0.0298 -0.717917,0.0584 -1.069078,0.13364 -0.275473,0.059 -0.523914,0.22095 -0.801809,0.26727 -0.263631,0.0439 -0.534538,0 -0.801806,0 -0.35636,0 -0.712719,0 -1.069079,0 -0.267271,0 -0.53454,0 -0.801809,0 -0.222723,0 -0.446365,0.0202 -0.668173,0 -0.552085,-0.0502 -0.687377,-0.0492 -1.069078,-0.26727 -0.225518,-0.12887 -0.430821,-0.29542 -0.668174,-0.40091 -0.167835,-0.0746 -0.365725,-0.0613 -0.53454,-0.13363 -0.147622,-0.0633 -0.25328,-0.20401 -0.400905,-0.26727 -0.168812,-0.0724 -0.360299,-0.0756 -0.534537,-0.13364 -0.227574,-0.0759 -0.437523,-0.20136 -0.668174,-0.26727 -0.08566,-0.0245 -0.178181,0 -0.267271,0 -0.222724,-0.0445 -0.452694,-0.0618 -0.668174,-0.13363 -0.188986,-0.063 -0.341275,-0.21895 -0.534537,-0.26727 -0.172861,-0.0432 -0.357093,0.0161 -0.534541,0 -0.313687,-0.0285 -0.628528,-0.0628 -0.935442,-0.13364 -0.274513,-0.0633 -0.53454,-0.17818 -0.801809,-0.26726 -0.35636,-0.0446 -0.716921,-0.0632 -1.069078,-0.13364 -0.317995,-0.0636 -0.614924,-0.21796 -0.935443,-0.26727 -0.528325,-0.0813 -1.076351,0.0879 -1.603618,0 -0.277895,-0.0463 -0.525552,-0.21202 -0.801809,-0.26727 -0.174718,-0.0349 -0.357735,0.0221 -0.534538,0 -0.182245,-0.0228 -0.351999,-0.11335 -0.53454,-0.13363 -0.221361,-0.0246 -0.445447,0 -0.668174,0 -0.178178,0 -0.356359,0 -0.534537,0 -0.178181,0 -0.35745,0.0197 -0.534541,0 -0.225745,-0.0251 -0.44197,-0.11308 -0.668173,-0.13364 -0.266171,-0.0242 -0.539729,0.0524 -0.801809,0 -0.195342,-0.0391 -0.341276,-0.21895 -0.534538,-0.26727 -0.17286,-0.0432 -0.356359,0 -0.53454,0 -0.133634,0 -0.267269,0 -0.400905,0 -0.623628,0 -1.247256,0 -1.870885,0 -1.291804,0 -2.583606,0 -3.87541,0 -0.267269,0 -0.534538,0 -0.801806,0 -0.267272,0 -0.535866,0.0266 -0.80181,0 -0.182753,-0.0183 -0.351787,-0.11536 -0.53454,-0.13363 -0.265943,-0.0266 -0.534538,0 -0.801807,0 -0.356359,0 -0.712718,0 -1.069078,0 -1.024535,0 -2.049068,0 -3.073601,0 -0.400904,0 -0.801809,0 -1.202713,0 -0.178179,0 -0.360601,0.0386 -0.534538,0 -0.23417,-0.052 -0.432163,-0.22436 -0.668174,-0.26727 -0.262958,-0.0478 -0.53454,0 -0.801809,0 -0.356359,0 -0.712719,0 -1.069078,0 -0.133636,0 -0.268613,0.0189 -0.400904,0 -0.70553,-0.10079 -0.444635,-0.18431 -1.202714,-0.40091 -0.08566,-0.0245 -0.179073,0.0126 -0.267269,0 -0.224851,-0.0321 -0.442428,-0.10855 -0.668174,-0.13363 -0.17709,-0.0197 -0.356359,0 -0.534537,0 -0.178181,0 -0.35636,0 -0.534541,0 -0.178178,0 -0.360603,0.0386 -0.534537,0 -0.23417,-0.052 -0.434007,-0.21523 -0.668176,-0.26727 -0.173935,-0.0387 -0.358148,0.0252 -0.534538,0 -0.139449,-0.0199 -0.260903,-0.11808 -0.400905,-0.13363 -0.265633,-0.0295 -0.534537,0 -0.801809,0 -0.668173,0 -1.336347,0 -2.00452,0 -0.623628,0 -1.247259,0 -1.870887,0 -0.178179,0 -0.360604,-0.0387 -0.534538,0 -0.23417,0.052 -0.440603,0.19141 -0.668176,0.26726 -0.174236,0.0581 -0.358622,0.0809 -0.534538,0.13364 -0.269846,0.0809 -0.531963,0.18631 -0.801809,0.26727 -0.175916,0.0528 -0.360299,0.0755 -0.534538,0.13363 -0.227573,0.0759 -0.436745,0.20415 -0.668176,0.26727 -0.261408,0.0713 -0.544756,0.048 -0.801807,0.13364 -0.152368,0.0508 -0.253283,0.204 -0.400904,0.26727 -0.168815,0.0723 -0.366705,0.059 -0.53454,0.13363 -0.237353,0.10549 -0.442656,0.27204 -0.668174,0.40091 -0.456673,0.26095 -0.293764,0.0533 -0.935442,0.53454 -0.151191,0.11339 -0.267269,0.26726 -0.400905,0.4009 -0.133636,0.13363 -0.279918,0.25572 -0.400904,0.4009 -0.10282,0.12339 -0.16445,0.27752 -0.267269,0.40091 -0.120989,0.14518 -0.267269,0.26727 -0.400905,0.4009 -0.133636,0.13364 -0.249714,0.28751 -0.400904,0.40091 -0.207791,0.15584 -0.442656,0.27203 -0.668174,0.4009 -0.08648,0.0494 -0.189492,0.0714 -0.267269,0.13364 -0.147576,0.11806 -0.243657,0.29607 -0.400904,0.4009 -0.117206,0.0781 -0.3013,0.034 -0.400905,0.13363 -0.0996,0.0996 -0.07064,0.27492 -0.133636,0.40091 -0.07183,0.14365 -0.178178,0.26727 -0.267269,0.4009 -0.08909,0.13364 -0.153701,0.28734 -0.267268,0.40091 -0.11357,0.11357 -0.296381,0.14532 -0.400905,0.26727 -0.169037,0.19721 -0.256828,0.45205 -0.400905,0.66817 -0.889198,1.3338 0.132879,-0.55201 -0.935442,1.73725 -0.126365,0.27078 -0.313028,0.51621 -0.400905,0.80181 -0.09263,0.30105 -0.06281,0.62853 -0.133635,0.93544 -0.06335,0.27452 -0.220954,0.52392 -0.267269,0.80181 -0.04394,0.26364 0,0.53454 0,0.80181 0,0.26727 -0.05242,0.53973 0,0.80181 0.03907,0.19534 0.208685,0.34414 0.267269,0.53454 0.364855,1.18578 0.131315,1.25501 0.668173,2.40543 0.13584,0.29108 0.390888,0.5145 0.534541,0.8018 0.258974,0.51795 0.420274,1.08028 0.668173,1.60362 0.570521,1.20443 0.619527,0.89518 1.469983,2.13816 0.293341,0.42873 0.507507,0.90827 0.801809,1.33634 0.197099,0.28669 0.448786,0.5318 0.668173,0.80181 0.359722,0.44274 0.665705,0.93298 1.069078,1.33635 1.340872,1.34087 1.722927,1.32593 3.207234,2.40543 0.461346,0.33552 0.900002,0.70163 1.336347,1.06908 0.410292,0.3455 0.756407,0.77154 1.202714,1.06907 0.869175,0.57945 2.265474,1.03835 3.207234,1.46998 4.567952,2.09365 -1.558512,-0.44955 3.474503,1.33635 0.7718,0.27387 1.499992,0.66158 2.271792,0.93545 1.01858,0.36143 3.007207,0.80192 4.009043,1.06907 1.919248,0.5118 2.078736,0.66961 4.142677,1.06908 6.280563,1.2156 -3.574635,-0.9172 4.409948,0.53454 0.638122,0.11602 1.227992,0.44882 1.870884,0.53454 0.706467,0.0942 1.427385,-0.0527 2.138157,0 0.496667,0.0368 0.978212,0.18859 1.469982,0.26727 0.622049,0.0995 1.243103,0.21495 1.870887,0.26727 0.44391,0.037 0.8909,0 1.336347,0 0.757264,0 1.514528,0 2.271792,0 1.714519,0 1.859211,0.0413 3.608139,-0.13364 0.7147,-0.0715 1.421482,-0.21949 2.138156,-0.26726 1.333389,-0.0889 2.675297,0.0834 4.009043,0 0.716868,-0.0448 1.421593,-0.21786 2.138157,-0.26727 0.577712,-0.0398 1.158168,0 1.737251,0 0.489995,0 0.979988,0 1.469983,0 0.623628,0 1.249243,0.0497 1.870887,0 0.49644,-0.0397 0.974,-0.22218 1.469983,-0.26727 0.975963,-0.0887 1.963999,0.0887 2.939965,0 0.49598,-0.0451 0.978209,-0.18859 1.46998,-0.26727 0.622048,-0.0995 1.251087,-0.15458 1.870887,-0.26727 0.361402,-0.0657 0.706247,-0.20998 1.069082,-0.26727 0.48599,-0.0767 0.99591,-0.002 1.46998,-0.13364 0.34603,-0.0961 0.59266,-0.42742 0.93544,-0.53454 0.38501,-0.12031 0.80718,-0.0545 1.20271,-0.13363 0.27626,-0.0553 0.52292,-0.22743 0.80181,-0.26727 0.35278,-0.0504 0.71964,0.0699 1.06908,0 0.36896,-0.0738 1.07219,-0.48736 1.46998,-0.66818 0.27971,-0.12713 1.45154,-0.59401 1.73726,-0.8018 0.25473,-0.18527 0.41343,-0.48291 0.66817,-0.66818 0.24166,-0.17575 0.57847,-0.20238 0.80181,-0.4009 0.19413,-0.17256 0.22834,-0.47404 0.4009,-0.66818 0.1895,-0.21318 0.45617,-0.34373 0.66818,-0.53453 0.23412,-0.21071 0.45891,-0.43276 0.66817,-0.66818 0.14797,-0.16646 0.26727,-0.35636 0.40091,-0.53454 0.17817,-0.22272 0.34373,-0.45616 0.53453,-0.66817 0.21071,-0.23412 0.43113,-0.46076 0.66818,-0.66817 0.12087,-0.10577 0.29638,-0.14533 0.4009,-0.26727 0.16904,-0.19721 0.25683,-0.45206 0.40091,-0.66818 0.78409,-1.17613 0.0705,0.0208 0.66817,-0.93544 0.13766,-0.22026 0.22834,-0.47404 0.4009,-0.66817 0.1895,-0.21318 0.50042,-0.30387 0.66818,-0.53454 0.19953,-0.27436 0.24919,-0.63202 0.4009,-0.93545 0.16061,-0.32121 0.34173,-0.63245 0.53454,-0.93544 0.66327,-1.04228 0.31911,-0.0498 1.06908,-1.73725 0.17163,-0.38617 0.2222,-0.81977 0.4009,-1.20272 0.13584,-0.29108 0.35636,-0.53454 0.53454,-0.8018 0.13364,-0.40091 0.23837,-0.81263 0.40091,-1.20272 0.0618,-0.14825 0.19544,-0.25725 0.26727,-0.4009 0.40356,-0.80712 -0.0193,-0.0566 0.13363,-0.66817 0.0483,-0.19327 0.20428,-0.34555 0.26727,-0.53454 0.0251,-0.0754 0,-0.3131 0,-0.40091 0,-0.0891 0,-0.17818 0,-0.26727 0,-0.0891 0.0282,-0.18275 0,-0.26727 -0.0199,-0.0598 -0.0958,-0.0832 -0.13363,-0.13363 -0.65333,-0.87111 0.26277,0.113 -0.93545,-0.93544 -1.07758,-0.94289 0.37392,0.25361 -0.8018,-1.06908 -0.1895,-0.21318 -0.46649,-0.33286 -0.66818,-0.53454 -0.11357,-0.11357 -0.18215,-0.26471 -0.26727,-0.40091 -0.28123,-0.44997 -0.44594,-0.81125 -0.80181,-1.20271 -0.29663,-0.32629 -0.63881,-0.60915 -0.93544,-0.93544 -0.14982,-0.16481 -0.23536,-0.38555 -0.40091,-0.53454 -0.28482,-0.25634 -0.66448,-0.39722 -0.93544,-0.66817 -0.18366,-0.18367 -0.22986,-0.47271 -0.4009,-0.66818 -0.60558,-0.69209 -0.34959,-0.19976 -0.93545,-0.53454 -0.42372,-0.24213 -0.52178,-0.46134 -0.93544,-0.66817 -0.12599,-0.063 -0.2837,-0.0555 -0.4009,-0.13364 -0.15725,-0.10483 -0.23885,-0.30367 -0.40091,-0.4009 -0.0764,-0.0458 -0.17991,0.0175 -0.26727,0 -0.27625,-0.0553 -0.52849,-0.19894 -0.80181,-0.26727 -0.0432,-0.0108 -0.10213,0.0315 -0.13363,0 -0.0704,-0.0704 -0.0632,-0.19684 -0.13364,-0.26727 -0.29182,-0.29183 -0.21697,-0.0278 -0.53453,-0.13364 -0.0598,-0.0199 -0.0812,-0.0987 -0.13364,-0.13363 -0.0829,-0.0553 -0.17277,-0.10214 -0.26727,-0.13363 -0.13703,-0.0457 -0.54893,0.0477 -0.66817,0 -0.13494,-0.054 -0.4736,-0.36199 -0.66818,-0.40091 -0.13104,-0.0262 -0.26727,0 -0.4009,0 -0.13364,0 -0.26727,0 -0.4009,0 -0.0891,0 -0.17992,0.0175 -0.26728,0 -1.12516,-0.22503 -0.004,-0.002 -0.53453,-0.26727 -0.0915,-0.0457 -0.62094,0.0472 -0.66818,0 -0.007,-0.007 0,-0.71809 0,-0.80181 0,-0.35636 0,-0.71272 0,-1.06908 0,-0.0891 0,-0.17818 0,-0.26726 0,-0.0891 0.0282,-0.18276 0,-0.26728 -0.0199,-0.0598 -0.10546,-0.0773 -0.13363,-0.13363 -0.0199,-0.0398 0,-0.0891 0,-0.13363 0,-0.0446 0,-0.0891 0,-0.13364 0,-0.22272 0,-0.44545 0,-0.66817 0,-0.0446 0,-0.0891 0,-0.13364 0,-0.0445 0.0315,-0.10213 0,-0.13363 -0.005,-0.005 -0.48547,0 -0.53454,0 -0.0446,0 -0.0938,0.0199 -0.13364,0 -0.0563,-0.0282 -0.0719,-0.14599 -0.13363,-0.13364 -0.19534,0.0391 -0.35636,0.17818 -0.53454,0.26727 z"
       id="path930"
       inkscape:connector-curvature="0" />
    <text
       xml:space="preserve"
       style="font-style:normal;font-variant:normal;font-weight:normal;font-stretch:normal;font-size:4.23333311px;line-height:1.25;font-family:sans-serif;-inkscape-font-specification:'sans-serif, Normal';font-variant-ligatures:normal;font-variant-caps:normal;font-variant-numeric:normal;text-align:start;letter-spacing:0px;word-spacing:0px;writing-mode:lr-tb;text-anchor:start;fill:#000000;fill-opacity:1;stroke:none;stroke-width:0.26458332"
       x="128.423"
       y="271.2085"
       id="text934"><tspan
         sodipodi:role="line"
         id="tspan932"
         x="128.423"
         y="271.2085"
         style="stroke-width:0.26458332">New Frontier</tspan></text>
  </g>
</svg>
