<?xml version="1.0" encoding="UTF-8" standalone="no"?>
<!-- Created with Inkscape (http://www.inkscape.org/) -->

<svg
   xmlns:dc="http://purl.org/dc/elements/1.1/"
   xmlns:cc="http://creativecommons.org/ns#"
   xmlns:rdf="http://www.w3.org/1999/02/22-rdf-syntax-ns#"
   xmlns:svg="http://www.w3.org/2000/svg"
   xmlns="http://www.w3.org/2000/svg"
   xmlns:sodipodi="http://sodipodi.sourceforge.net/DTD/sodipodi-0.dtd"
   xmlns:inkscape="http://www.inkscape.org/namespaces/inkscape"
   width="157mm"
   height="101mm"
   viewBox="0 0 157 101"
   version="1.1"
   id="svg8"
   inkscape:version="0.92.4 (5da689c313, 2019-01-14)"
   sodipodi:docname="gbfs.svg">
  <defs
     id="defs2">
    <marker
       inkscape:stockid="Arrow1Lend"
       orient="auto"
       refY="0.0"
       refX="0.0"
       id="marker1182"
       style="overflow:visible;"
       inkscape:isstock="true">
      <path
         id="path885"
         d="M 0.0,0.0 L 5.0,-5.0 L -12.5,0.0 L 5.0,5.0 L 0.0,0.0 z "
         style="fill-rule:evenodd;stroke:#000000;stroke-width:1pt;stroke-opacity:1;fill:#000000;fill-opacity:1"
         transform="scale(0.8) rotate(180) translate(12.5,0)" />
    </marker>
    <marker
       inkscape:stockid="Arrow1Lend"
       orient="auto"
       refY="0"
       refX="0"
       id="Arrow1Lend"
       style="overflow:visible"
       inkscape:isstock="true">
      <path
         id="path4527"
         d="M 0,0 5,-5 -12.5,0 5,5 Z"
         style="fill:#000000;fill-opacity:1;fill-rule:evenodd;stroke:#000000;stroke-width:1.00000003pt;stroke-opacity:1"
         transform="matrix(-0.8,0,0,-0.8,-10,0)"
         inkscape:connector-curvature="0" />
    </marker>
  </defs>
  <sodipodi:namedview
     id="base"
     pagecolor="#ffffff"
     bordercolor="#666666"
     borderopacity="1.0"
     inkscape:pageopacity="0.0"
     inkscape:pageshadow="2"
     inkscape:zoom="2.8"
     inkscape:cx="231.63014"
     inkscape:cy="218.85351"
     inkscape:document-units="mm"
     inkscape:current-layer="layer1"
     showgrid="false"
     inkscape:window-width="2736"
     inkscape:window-height="1699"
     inkscape:window-x="-13"
     inkscape:window-y="-13"
     inkscape:window-maximized="1"
     width="157mm"
     fit-margin-top="2.7755576e-17"
     fit-margin-left="0"
     fit-margin-right="0"
     fit-margin-bottom="0"
     showguides="true" />
  <metadata
     id="metadata5">
    <rdf:RDF>
      <cc:Work
         rdf:about="">
        <dc:format>image/svg+xml</dc:format>
        <dc:type
           rdf:resource="http://purl.org/dc/dcmitype/StillImage" />
        <dc:title />
      </cc:Work>
    </rdf:RDF>
  </metadata>
  <g
     inkscape:label="Layer 1"
     inkscape:groupmode="layer"
     id="layer1"
     transform="translate(0,-196)">
    <circle
       style="fill:#000041;fill-opacity:0;stroke:#000000;stroke-width:0.26499999;stroke-miterlimit:4;stroke-dasharray:none;stroke-opacity:1"
       id="path829"
       cx="55.373512"
       cy="209.02605"
       r="7.5595236" />
    <circle
       r="7.5595236"
       cy="237.94122"
       cx="44.506695"
       id="circle831"
       style="fill:#000041;fill-opacity:0;stroke:#000000;stroke-width:0.26499999;stroke-miterlimit:4;stroke-dasharray:none;stroke-opacity:1" />
    <circle
       style="fill:#000041;fill-opacity:0;stroke:#000000;stroke-width:0.26499999;stroke-miterlimit:4;stroke-dasharray:none;stroke-opacity:1"
       id="circle833"
       cx="78.524551"
       cy="234.82292"
       r="7.5595236" />
    <circle
       style="fill:#000041;fill-opacity:0;stroke:#000000;stroke-width:0.26499999;stroke-miterlimit:4;stroke-dasharray:none;stroke-opacity:1"
       id="circle835"
       cx="25.796873"
       cy="268.74628"
       r="7.5595236" />
    <circle
       style="fill:#000041;fill-opacity:0;stroke:#000000;stroke-width:0.26499999;stroke-miterlimit:4;stroke-dasharray:none;stroke-opacity:1"
       id="circle837"
       cx="58.775295"
       cy="264.02158"
       r="7.5595236" />
    <path
       style="fill:none;stroke:#000000;stroke-width:0.26458332px;stroke-linecap:butt;stroke-linejoin:miter;stroke-opacity:1"
       d="m 53.011161,216.49107 -4.91369,14.55209"
       id="path850"
       inkscape:connector-curvature="0"
       sodipodi:nodetypes="cc" />
    <path
       style="fill:none;stroke:#000000;stroke-width:0.26458332px;stroke-linecap:butt;stroke-linejoin:miter;stroke-opacity:1"
       d="m 60.287202,214.88468 11.717262,15.40253"
       id="path852"
       inkscape:connector-curvature="0"
       sodipodi:nodetypes="cc" />
    <path
       style="fill:none;stroke:#000000;stroke-width:0.26458332px;stroke-linecap:butt;stroke-linejoin:miter;stroke-opacity:1"
       d="M 42.333333,245.40625 32.316965,264.11607"
       id="path854"
       inkscape:connector-curvature="0"
       sodipodi:nodetypes="cc" />
    <path
       style="fill:none;stroke:#000000;stroke-width:0.26458332px;stroke-linecap:butt;stroke-linejoin:miter;stroke-opacity:1"
       d="m 48.191963,244.46131 6.520091,13.22916"
       id="path856"
       inkscape:connector-curvature="0"
       sodipodi:nodetypes="cc" />
    <path
       style="fill:none;stroke:#000000;stroke-width:0.265;stroke-linecap:butt;stroke-linejoin:miter;stroke-opacity:1;stroke-miterlimit:4;stroke-dasharray:0.265,2.12;stroke-dashoffset:0"
       d="m 63.594492,230.66518 c -2.239483,0 0.626759,0.0819 -1.133927,-0.18899 -0.249055,-0.0383 -0.503968,0 -0.755952,0 -0.440973,0 -0.881946,0 -1.322916,0 -0.157491,0 -0.314981,0 -0.472472,0 -0.063,0 -0.127214,0.0124 -0.188987,0 -0.09767,-0.0195 -0.186851,-0.0703 -0.283482,-0.0945 -0.03056,-0.008 -0.06394,0.008 -0.09449,0 -0.09663,-0.0242 -0.185812,-0.075 -0.283483,-0.0945 -0.06177,-0.0124 -0.125992,0 -0.188989,0 -0.09449,0 -0.188987,0 -0.283483,0 -0.06299,0 -0.125992,0 -0.188986,0 -0.0315,0 -0.06632,0.0141 -0.0945,0 -0.371642,-0.18582 -0.171109,-0.20431 -0.566962,-0.28348 -0.06177,-0.0124 -0.125992,0 -0.18899,0 -0.125992,0 -0.251984,0 -0.377976,0 -0.09449,0 -0.191238,0.0205 -0.283482,0 -0.285038,-0.0633 -0.637815,-0.24936 -0.944941,-0.28348 -0.156527,-0.0174 -0.314978,0 -0.472469,0 -0.503968,0 -1.007938,0 -1.511906,0 -0.62996,0 -1.259919,0 -1.889879,0 -0.220488,0 -0.440973,0 -0.661458,0 -0.0945,0 -0.193839,0.0299 -0.283483,0 -0.04226,-0.0141 -0.05128,-0.0837 -0.0945,-0.0945 -0.09167,-0.0229 -0.188986,0 -0.28348,0 -0.15749,0 -0.314981,0 -0.472471,0 -0.063,0 -0.127215,0.0124 -0.188987,0 -0.09767,-0.0195 -0.18488,-0.0804 -0.283482,-0.0945 -0.124728,-0.0178 -0.251984,0 -0.377976,0 -0.34648,0 -0.692957,0 -1.039437,0 -0.157488,0 -0.314979,0 -0.472469,0 -0.063,0 -0.128416,0.0173 -0.188989,0 -0.163095,-0.0466 -0.309375,-0.14239 -0.472469,-0.18899 -0.06057,-0.0173 -0.127215,0.0124 -0.18899,0 -0.09767,-0.0195 -0.186848,-0.0703 -0.28348,-0.0945 -0.03056,-0.008 -0.063,0 -0.0945,0 -0.157491,0 -0.314979,0 -0.47247,0 -0.063,0 -0.130497,0.0234 -0.188989,0 -0.105444,-0.0422 -0.181903,-0.1382 -0.283482,-0.18899 -0.02817,-0.0141 -0.06632,0.0141 -0.09449,0 -0.03984,-0.0199 -0.05465,-0.0746 -0.09449,-0.0945 -0.02817,-0.0141 -0.063,0 -0.09449,0 -0.063,0 -0.127873,0.0153 -0.188989,0 -0.456306,-0.11408 0.0047,-0.0449 -0.283483,-0.18899 -0.02817,-0.0141 -0.063,0 -0.09449,0 -0.09449,-0.0315 -0.203798,-0.0347 -0.283483,-0.0945 -0.05635,-0.0423 -0.04469,-0.13918 -0.09449,-0.18899 -0.02228,-0.0223 -0.063,0 -0.0945,0 -0.09449,0 -0.188987,0 -0.28348,0 -0.063,0 -0.127217,0.0124 -0.188989,0 -0.583237,-0.11664 0.01627,-0.0723 -0.566965,-0.18898 -0.06177,-0.0124 -0.125992,0 -0.188987,0 -0.0945,0 -0.188989,0 -0.283482,0 -0.063,0 -0.130498,0.0234 -0.188989,0 -0.105445,-0.0422 -0.181904,-0.1382 -0.283483,-0.18899 -0.02817,-0.0141 -0.06632,0.0141 -0.09449,0 -0.03984,-0.0199 -0.05128,-0.0837 -0.09449,-0.0945 -0.05544,-0.0139 -0.520658,0.0231 -0.566966,0 -0.446217,-0.22311 0.576755,0.0497 -0.377975,-0.18899 -0.06112,-0.0153 -0.125992,0 -0.18899,0 -0.251983,0 -0.503967,0 -0.755951,0 -0.063,0 -0.129225,0.0199 -0.188989,0 -0.62996,-0.20999 0.220487,0.0525 -0.28348,-0.28349 -0.05242,-0.0349 -0.125992,0 -0.188989,0 -0.063,0 -0.125992,0 -0.18899,0 -0.377976,0 -0.755951,0 -1.133927,0 -0.063,0 -0.132644,-0.0282 -0.188989,0 -0.02817,0.0141 0.02988,0.0845 0,0.0945 -0.08964,0.0299 -0.193837,-0.0299 -0.28348,0 -0.02988,0.01 0.02817,0.0804 0,0.0945 -0.05635,0.0282 -0.129225,-0.0199 -0.188989,0 -0.04226,0.0141 -0.063,0.063 -0.09449,0.0945 -0.063,0.0315 -0.12066,0.0774 -0.188989,0.0945 -0.06111,0.0153 -0.131085,-0.0248 -0.188987,0 -0.168814,0.0724 -0.304638,0.20889 -0.472471,0.28348 -0.118677,0.0528 -0.265219,0.0301 -0.377976,0.0945 -0.0689,0.0394 -0.374039,0.39372 -0.472469,0.47247 -0.657789,0.52623 0.106428,-0.20093 -0.566965,0.47247 -0.0315,0.0315 -0.06979,0.0574 -0.09449,0.0945 -0.03907,0.0586 -0.04469,0.13919 -0.0945,0.18899 -0.0803,0.0803 -0.192628,0.12085 -0.283483,0.18899 -0.09194,0.069 -0.46732,0.46474 -0.472469,0.47247 -0.05525,0.0829 -0.04995,0.19439 -0.09449,0.28348 -0.07043,0.14086 -0.279594,0.1605 -0.377976,0.28348 -0.06222,0.0778 -0.04995,0.19439 -0.0945,0.28348 -0.01992,0.0399 -0.063,0.063 -0.09449,0.0945 -0.09449,0.0945 -0.214728,0.16889 -0.283483,0.28348 -0.03241,0.054 0.0378,0.13859 0,0.18899 -0.06814,0.0909 -0.192627,0.12085 -0.283482,0.18899 -0.289449,0.21708 0.154934,-0.0604 -0.188987,0.28348 -0.08031,0.0803 -0.212537,0.1003 -0.283483,0.18899 -0.06222,0.0778 -0.04325,0.19807 -0.09449,0.28348 -0.04584,0.0764 -0.133334,0.11942 -0.188989,0.18899 -0.185629,0.23203 -0.279085,0.53034 -0.472469,0.75595 -0.07391,0.0862 -0.209574,0.10276 -0.283483,0.18899 -0.102401,0.11947 -0.395811,0.67157 -0.472471,0.85044 -0.03924,0.0916 -0.03924,0.20061 -0.09449,0.28349 -0.537387,0.53738 -0.10447,0.0199 -0.377976,0.56696 -0.01992,0.0398 -0.08041,0.0522 -0.09449,0.0945 -0.01992,0.0598 0.02339,0.1305 0,0.18899 -0.04218,0.10545 -0.1382,0.18191 -0.188989,0.28349 -0.342342,0.68468 0.04966,-0.0321 -0.09449,0.47246 -0.153157,0.53605 -0.212215,0.35157 -0.283483,0.85045 0,0.90433 0.04226,-0.21129 -0.09449,0.47247 -0.01855,0.0927 0.02988,0.19384 0,0.28348 -0.03591,0.10774 -0.146812,0.17804 -0.188989,0.28349 -0.02339,0.0585 0,0.12599 0,0.18898 0,0.0945 0,0.18899 0,0.28349 0,0.22048 -0.02434,0.44232 0,0.66145 0.01434,0.12908 0.07314,0.24988 0.09449,0.37798 0.01035,0.0621 -0.0089,0.12663 0,0.18899 0.0227,0.15899 0.07676,0.31284 0.0945,0.47247 0,0.81743 -0.03984,-0.0102 0.09449,0.66146 0.01236,0.0618 -0.02339,0.13049 0,0.18899 0.04218,0.10544 0.153075,0.17574 0.188987,0.28348 0.03222,0.0967 -0.02191,0.62442 0,0.75595 0.119343,0.71605 0.01926,0.0385 0.188989,0.37798 0.02817,0.0563 -0.02817,0.13264 0,0.18898 0.01992,0.0399 0.063,0.063 0.09449,0.0945 0.063,0.0945 0.146812,0.17804 0.188989,0.28348 0.02339,0.0585 -0.01236,0.12721 0,0.18899 0.03907,0.19534 0.149919,0.37162 0.188987,0.56696 0.01236,0.0618 -0.03494,0.13657 0,0.18899 0.03907,0.0586 0.14673,0.0382 0.188989,0.0945 0.05976,0.0797 0.04995,0.1944 0.09449,0.28349 0.01992,0.0398 0.06979,0.0574 0.0945,0.0945 0.03907,0.0586 0.0505,0.13399 0.09449,0.18899 0.166962,0.2087 0.406601,0.35315 0.566965,0.56696 0.634423,0.8459 -0.05817,0.12113 0.566962,0.85045 0.173937,0.20293 0.395865,0.36164 0.566965,0.56696 0.217893,0.26148 0.161896,0.35992 0.472469,0.56697 0.165754,0.1105 0.401212,0.0785 0.566965,0.18899 0.111192,0.0741 0.18899,0.18899 0.283483,0.28348 0.063,0.063 0.112593,0.14315 0.188989,0.18899 0.08541,0.0512 0.194392,0.0499 0.28348,0.0945 0.164274,0.0821 0.304639,0.20889 0.472472,0.28348 0.118676,0.0528 0.265218,0.0301 0.377976,0.0945 0.116027,0.0663 0.172291,0.20935 0.283482,0.28348 0.452826,0.30188 0.642112,0.28331 1.133927,0.47247 0.223894,0.0861 0.446903,0.1762 0.661459,0.28348 0.227137,0.11357 0.438523,0.25637 0.661458,0.37798 0.123664,0.0675 0.251984,0.12599 0.377976,0.18899 0.125995,0.063 0.244343,0.14444 0.377978,0.18898 0.152366,0.0508 0.325702,0.0293 0.47247,0.0945 0.143917,0.064 0.245107,0.19893 0.377975,0.28348 0.806228,0.51305 0.398725,0.28026 1.039434,0.47247 0.19081,0.0572 0.369756,0.16082 0.566965,0.18899 2.394794,0.34211 -0.74518,-0.33803 1.41741,0.0945 0.254696,0.0509 0.503119,0.1295 0.755955,0.18899 0.282675,0.0665 0.565687,0.13204 0.850445,0.18899 0.187875,0.0376 0.38109,0.048 0.566965,0.0945 0.193262,0.0483 0.374771,0.13657 0.566965,0.18899 0.157488,0.0315 0.314978,0.063 0.472469,0.0945 0.125992,0 0.254431,-0.0247 0.377976,0 0.195341,0.0391 0.377975,0.126 0.566965,0.18899 0.09449,0.0315 0.184285,0.0855 0.283482,0.0945 0.250949,0.0228 0.503968,0 0.755952,0 0.629959,0 1.259922,0 1.889881,0 0.440971,0 0.882553,0.0232 1.322917,0 0.55322,0.0823 1.069102,-0.14422 1.606399,-0.18899 0.188336,-0.0157 0.381024,0.0338 0.566963,0 0.875421,-0.15917 0.09172,-0.20761 0.850447,-0.28348 0.18805,-0.0188 0.377976,0 0.566965,0 0.188987,0 0.377976,0 0.566963,0 0.566965,0 1.13393,0 1.700895,0 0.503967,0 1.007935,0 1.511903,0 0.188989,0 0.377976,0 0.566965,0 0.188987,0 0.380548,-0.0311 0.566965,0 0.196498,0.0327 0.370462,0.15623 0.566962,0.18898 0.186418,0.0311 0.377976,0 0.566965,0 0.251984,0 0.505003,-0.0228 0.755952,0 0.806095,-7.9e-4 1.568844,0.29863 2.362351,0.37798 0.282077,0.0282 0.568129,-0.0257 0.850447,0 0.634392,0.0577 1.255073,0.23058 1.889882,0.28348 0.156946,0.0131 0.317122,-0.0259 0.472469,0 0.22619,0.0377 0.434816,0.15412 0.661458,0.18899 0.186791,0.0287 0.378916,-0.0188 0.566966,0 1.634558,0.16346 -0.952913,-0.001 0.755951,0.28348 0.248555,0.0414 0.504404,-0.0148 0.755952,0 2.079458,0.12232 -0.299297,0.0945 1.606399,0.0945 0.818949,0 1.637898,0 2.456847,0 0.346477,0 0.692954,0 1.039434,0 0.125992,0 0.253698,0.0207 0.377976,0 0.256204,-0.0427 0.503967,-0.12599 0.755951,-0.18899 0.283483,0 0.568907,0.0331 0.850448,0 0.257961,-0.0303 0.497991,-0.15864 0.755951,-0.18899 0.281541,-0.0331 0.567455,0.0166 0.850448,0 0.253505,-0.0149 0.502653,-0.0764 0.755952,-0.0945 0.188507,-0.0135 0.377975,0 0.566965,0 0.15749,0 0.31873,0.0342 0.472469,0 0.137509,-0.0306 0.246081,-0.13953 0.377975,-0.18899 0.121603,-0.0456 0.251984,-0.063 0.377976,-0.0945 0.157491,0 0.323064,0.0498 0.472472,0 0.149408,-0.0498 0.237112,-0.21305 0.377976,-0.28349 0.178181,-0.0891 0.381032,-0.11747 0.566965,-0.18899 1.962811,-0.75492 -0.87194,0.2656 1.511903,-0.66145 2.381544,-0.92616 -0.398206,0.31618 1.417413,-0.66146 0.211209,-0.11373 0.453181,-0.16447 0.661458,-0.28348 0.50052,-0.28602 0.612725,-0.47148 1.039434,-0.75596 0.152816,-0.10187 0.308197,-0.20134 0.472469,-0.28348 0.08909,-0.0445 0.200607,-0.0392 0.283483,-0.0945 0.111191,-0.0741 0.188989,-0.18899 0.283482,-0.28348 0.157491,-0.1575 0.314979,-0.31499 0.472469,-0.47247 0.063,-0.063 0.133334,-0.11943 0.18899,-0.18899 0.07094,-0.0887 0.116284,-0.19624 0.188986,-0.28349 0.08555,-0.10266 0.209357,-0.17229 0.283483,-0.28348 0.117205,-0.17581 0.163211,-0.39324 0.283482,-0.56696 0.165299,-0.23876 0.442651,-0.39902 0.566965,-0.66146 0.166786,-0.3521 0.130009,-0.77582 0.283483,-1.13393 0.01408,-0.0329 1.1148,-1.66051 1.133927,-1.70089 0.140777,-0.29719 0.118719,-0.66035 0.283483,-0.94494 0.190037,-0.32825 0.541075,-0.5379 0.755951,-0.85045 0.135901,-0.19767 0.164468,-0.45318 0.283483,-0.66146 0.134432,-0.23525 0.305067,-0.4484 0.472472,-0.66145 0.179414,-0.22835 0.429286,-0.40578 0.566962,-0.66146 0.09084,-0.1687 0.02334,-0.38908 0.0945,-0.56697 0.05849,-0.14622 0.188986,-0.25198 0.28348,-0.37797 0,-0.15749 -0.03416,-0.31873 0,-0.47247 0.03056,-0.13751 0.139528,-0.24609 0.188989,-0.37798 0.0456,-0.1216 0.05343,-0.25477 0.09449,-0.37798 0.05364,-0.16091 0.14436,-0.30882 0.18899,-0.47247 0.21963,-0.29501 0.02582,-0.63592 0.09449,-0.94494 0.170317,-0.76643 0.199072,-0.17516 0.283482,-0.85044 0.01564,-0.12502 0,-0.25199 0,-0.37798 0,-0.34648 0,-0.69296 0,-1.03943 0,-0.15749 0,-0.31499 0,-0.47248 0,-0.063 -0.0173,-0.12841 0,-0.18898 0.0466,-0.1631 0.152191,-0.30689 0.18899,-0.47247 0.02733,-0.123 0,-0.25199 0,-0.37798 0,-0.12599 0,-0.25198 0,-0.37798 0,-0.0945 0.01336,-0.18993 0,-0.28348 -0.01836,-0.12856 -0.063,-0.25198 -0.0945,-0.37797 -0.0315,-0.126 -0.06032,-0.25269 -0.09449,-0.37798 -0.06033,-0.22123 -0.07763,-0.46101 -0.188989,-0.66146 -0.05515,-0.0993 -0.227137,-0.0904 -0.28348,-0.18899 -0.07968,-0.13944 -0.04371,-0.3201 -0.0945,-0.47247 -0.04454,-0.13363 -0.133498,-0.2485 -0.188986,-0.37797 -0.03924,-0.0915 -0.05526,-0.19193 -0.0945,-0.28348 -0.05549,-0.12948 -0.150289,-0.24254 -0.188987,-0.37798 -0.324091,-1.13432 0.371504,0.59803 -0.09449,-0.56697 -0.02617,-0.0654 -0.05543,-0.13038 -0.0945,-0.18898 -0.02471,-0.0371 -0.08369,-0.0513 -0.09449,-0.0945 -0.02291,-0.0917 0.05242,-0.20486 0,-0.28348 -0.03494,-0.0524 -0.136573,0.035 -0.18899,0 -0.0586,-0.0391 -0.04469,-0.13918 -0.09449,-0.18899 -0.0803,-0.0803 -0.192627,-0.12085 -0.283482,-0.18899 -0.07127,-0.0535 -0.114861,-0.13957 -0.188987,-0.18898 -0.35256,-0.23504 -0.130424,0.0941 -0.661458,-0.37798 -0.150744,-0.13399 -0.228743,-0.3368 -0.377976,-0.47247 -0.200493,-0.18226 -0.469866,-0.28088 -0.661458,-0.47247 -0.129871,-0.12987 -0.176731,-0.32302 -0.283483,-0.47247 -0.05178,-0.0725 -0.143153,-0.11259 -0.188989,-0.18899 -0.05125,-0.0854 -0.02405,-0.21305 -0.09449,-0.28348 -0.07043,-0.0704 -0.213051,-0.0241 -0.283483,-0.0945 -0.07043,-0.0704 -0.04995,-0.1944 -0.09449,-0.28349 -0.05079,-0.10158 -0.108686,-0.20318 -0.188989,-0.28348 -0.0498,-0.0498 -0.130384,-0.0554 -0.188987,-0.0945 -0.111191,-0.0741 -0.176575,-0.20331 -0.283483,-0.28348 -0.05635,-0.0423 -0.130386,-0.0554 -0.188989,-0.0945 -0.03706,-0.0247 -0.05886,-0.0678 -0.09449,-0.0945 -0.228193,-0.17115 -0.395859,-0.25725 -0.661458,-0.37798 -0.231513,-0.10523 -0.996678,-0.40652 -1.228424,-0.56696 -0.617598,-0.42757 -0.528378,-0.58132 -1.133927,-0.85045 -0.118676,-0.0527 -0.253103,-0.0588 -0.377976,-0.0945 -0.09577,-0.0274 -0.185812,-0.075 -0.283483,-0.0945 -0.06177,-0.0123 -0.130497,0.0234 -0.188989,0 -0.234026,0.0524 -0.237111,-0.21305 -0.377976,-0.28348 -0.02817,-0.0141 -0.063,0 -0.09449,0 -0.0945,0 -0.188989,0 -0.283482,0 -0.063,0 -0.129226,0.0199 -0.18899,0 -0.08452,-0.0282 -0.102557,-0.16738 -0.188986,-0.18899 -0.09167,-0.0229 -0.188989,0 -0.283483,0 -0.09449,-0.063 -0.174283,-0.15779 -0.283482,-0.18899 -0.121145,-0.0346 -0.252958,0.0156 -0.377976,0 -0.128868,-0.0161 -0.248901,-0.0802 -0.377976,-0.0945 -0.156527,-0.0174 -0.314981,0 -0.472472,0 -0.44097,0 -0.881943,0 -1.322916,0 -0.62996,0 -1.25992,0 -1.889879,0 -0.151249,0 -0.773835,-0.0219 -0.850448,0 -0.109199,0.0312 -0.174283,0.15779 -0.283482,0.18899 -0.121145,0.0346 -0.253252,-0.0178 -0.377976,0 -0.434647,0.0621 -0.151093,0.11713 -0.566965,0.28348 -0.05849,0.0234 -0.127214,-0.0123 -0.188987,0 -0.195342,0.0391 -0.373703,0.14067 -0.566965,0.18899 -0.125992,0.0315 -0.125992,-0.063 -0.283482,0 -0.234027,-0.0524 -0.237112,0.21305 -0.377976,0.28348 -0.02817,0.0141 -0.063,0 -0.09449,0 -0.0945,0.0315 -0.194392,0.05 -0.283483,0.0945 -0.03984,0.0199 -0.05224,0.0804 -0.09449,0.0945 -0.05976,0.0199 -0.130498,-0.0234 -0.188989,0 -0.105445,0.0422 -0.179097,0.14425 -0.283483,0.18899 -0.119369,0.0512 -0.265218,0.0301 -0.377976,0.0945 -0.116027,0.0663 -0.176575,0.2033 -0.283482,0.28348 -0.146931,0.1102 -0.319654,0.18161 -0.472469,0.28348 -0.707771,0.47185 -0.07749,0.0803 -0.661459,0.56697 -0.08725,0.0727 -0.188989,0.12599 -0.283482,0.18899 -0.09449,0.063 -0.1861,0.13055 -0.283483,0.18899 -0.0303,0.0182 -0.374065,0.18377 -0.377976,0.18898 -0.05976,0.0797 -0.02405,0.21305 -0.09449,0.28348 -0.04454,0.0446 -0.138591,-0.0378 -0.188989,0 -0.09086,0.0682 -0.108683,0.20318 -0.188989,0.28349 -0.02228,0.0223 -0.06632,-0.0141 -0.09449,0 -0.07968,0.0398 -0.117715,0.13553 -0.188986,0.18899 -0.09086,0.0681 -0.194802,0.11804 -0.283483,0.18898 -0.06957,0.0557 -0.112596,0.14316 -0.188989,0.18899 -0.08541,0.0512 -0.205703,0.0323 -0.283482,0.0945 -0.08868,0.0709 -0.120846,0.19262 -0.188987,0.28348 -0.217088,0.28945 0.06044,-0.15494 -0.283483,0.18898 -0.0803,0.0803 -0.108682,0.20318 -0.188989,0.28349 -0.02228,0.0223 -0.07222,-0.0223 -0.09449,0 -0.0803,0.0803 -0.108683,0.20318 -0.188989,0.28348 -0.02228,0.0223 -0.06461,-0.01 -0.09449,0 -0.06682,0.0223 -0.125991,0.063 -0.188986,0.0945 -0.063,0.0315 -0.14673,0.0382 -0.188989,0.0945 -0.05976,0.0797 -0.03473,0.2038 -0.09449,0.28348 -0.0068,0.009 -0.346437,0.16796 -0.377975,0.18899 -0.02744,0.0183 -0.175726,0.18567 -0.18899,0.18899 -0.09167,0.0229 -0.204859,-0.0524 -0.283482,0 -0.05242,0.0349 0.01992,0.12922 0,0.18898 -0.06268,0.18804 -0.08819,0.0441 -0.188987,0.0945 -0.08375,0.0419 -0.197464,0.22613 -0.283482,0.28348 -0.0586,0.0391 -0.130387,0.0554 -0.18899,0.0945 -0.06459,0.0431 -0.359544,0.35032 -0.377975,0.37797 -0.01746,0.0262 0.02988,0.0845 0,0.0945 -0.08965,0.0299 -0.19181,-0.0229 -0.283483,0 -0.08643,0.0216 -0.109305,0.14915 -0.188986,0.18899 -0.02817,0.0141 -0.06632,-0.0141 -0.0945,0 -0.03984,0.0199 -0.05886,0.0678 -0.09449,0.0945 -0.09086,0.0681 -0.181903,0.1382 -0.283482,0.18899 -0.02817,0.0141 -0.07222,-0.0223 -0.09449,0 -0.0498,0.0498 -0.0315,0.15748 -0.09449,0.18898 -0.08452,0.0423 -0.207888,-0.0567 -0.283482,0 -0.348234,0.26118 0.08311,0.24193 -0.188989,0.37798 -0.08909,0.0445 -0.186852,0.0703 -0.283483,0.0945 -0.03056,0.008 -0.06632,-0.0141 -0.09449,0 -0.07969,0.0399 -0.109305,0.14915 -0.18899,0.18899 -0.02817,0.0141 -0.08041,-0.0282 -0.09449,0 -0.06147,0.12294 0.08801,0.22265 -0.09449,0.28348 -0.05976,0.0199 -0.125992,0 -0.188989,0 -0.0315,0 -0.06632,-0.0141 -0.09449,0 -0.03984,0.0199 -0.05465,0.0746 -0.09449,0.0945 -0.03747,0.0187 -0.264165,-0.0193 -0.283482,0 -0.02228,0.0223 0.02228,0.0722 0,0.0945 -0.02228,0.0223 -0.07222,-0.0223 -0.09449,0 -0.04454,0.0445 0.05634,0.16082 0,0.18899 -0.05634,0.0282 -0.125994,0 -0.188989,0 -0.0315,0 -0.07222,-0.0223 -0.09449,0 -0.02228,0.0223 0.02228,0.0722 0,0.0945 -0.02228,0.0223 -0.063,0 -0.0945,0 0,0.063 0.02817,0.13265 0,0.18899 -0.02817,0.0564 -0.144442,-0.0445 -0.188987,0 -0.02228,0.0223 0.02228,0.0722 0,0.0945 -0.02228,0.0223 -0.09449,0.0315 -0.09449,0 0,-0.0315 0.063,0 0.09449,0 -0.15749,-0.063 -0.314981,-0.126 -0.472472,-0.18899 z"
       id="path858"
       inkscape:connector-curvature="0" />
    <text
       xml:space="preserve"
       style="font-style:normal;font-variant:normal;font-weight:normal;font-stretch:normal;font-size:4.23333311px;line-height:1.25;font-family:sans-serif;-inkscape-font-specification:'sans-serif, Normal';font-variant-ligatures:normal;font-variant-caps:normal;font-variant-numeric:normal;text-align:start;letter-spacing:0px;word-spacing:0px;writing-mode:lr-tb;text-anchor:start;fill:#000000;fill-opacity:1;stroke:none;stroke-width:0.26458332"
       x="103.093"
       y="233.21651"
       id="text862"><tspan
         sodipodi:role="line"
         id="tspan860"
         x="103.093"
         y="233.21651"
         style="stroke-width:0.26458332">Frontier</tspan></text>
    <text
       xml:space="preserve"
       style="font-style:normal;font-variant:normal;font-weight:normal;font-stretch:normal;font-size:4.23333311px;line-height:1.25;font-family:sans-serif;-inkscape-font-specification:'sans-serif, Normal';font-variant-ligatures:normal;font-variant-caps:normal;font-variant-numeric:normal;text-align:start;letter-spacing:0px;word-spacing:0px;writing-mode:lr-tb;text-anchor:start;fill:#000000;fill-opacity:1;stroke:none;stroke-width:0.26458332"
       x="102.52604"
       y="250.7924"
       id="text866"><tspan
         sodipodi:role="line"
         id="tspan864"
         x="102.52604"
         y="250.7924"
         style="stroke-width:0.26458332">Expands at</tspan><tspan
         sodipodi:role="line"
         x="102.52604"
         y="256.13687"
         style="stroke-width:0.26458332"
         id="tspan868">the lowest cost</tspan><tspan
         sodipodi:role="line"
         x="102.52604"
         y="261.48135"
         style="stroke-width:0.26458332"
         id="tspan870">At frontier</tspan><tspan
         sodipodi:role="line"
         x="102.52604"
         y="266.82584"
         style="stroke-width:0.26458332"
         id="tspan872">(Uniform cost search)</tspan></text>
    <rect
       style="fill:#000041;fill-opacity:0;stroke:#000000;stroke-width:0.3;stroke-miterlimit:4;stroke-dasharray:none;stroke-dashoffset:0;stroke-opacity:1"
       id="rect876"
       width="54.42857"
       height="26.647322"
       x="99.596718"
       y="244.7448" />
    <path
       style="fill:none;stroke:#000000;stroke-width:0.26458332px;stroke-linecap:butt;stroke-linejoin:miter;stroke-opacity:1;marker-end:url(#marker1182)"
       d="M 99.313243,265.43899 C 85.445964,264.71288 82.436322,260.4834 79.280506,256.27306"
       id="path1179"
       inkscape:connector-curvature="0"
       sodipodi:nodetypes="cc" />
    <text
       xml:space="preserve"
       style="font-style:normal;font-variant:normal;font-weight:normal;font-stretch:normal;font-size:4.23333311px;line-height:1.25;font-family:sans-serif;-inkscape-font-specification:'sans-serif, Normal';font-variant-ligatures:normal;font-variant-caps:normal;font-variant-numeric:normal;text-align:start;letter-spacing:0px;word-spacing:0px;writing-mode:lr-tb;text-anchor:start;fill:#000000;fill-opacity:1;stroke:none;stroke-width:0.26458332"
       x="108.85714"
       y="281.125"
       id="text1606"><tspan
         sodipodi:role="line"
         id="tspan1604"
         x="108.85714"
         y="281.125"
         style="stroke-width:0.26458332">$f(n) = g(n)$</tspan></text>
  </g>
</svg>
